<?xml version="1.0" encoding="UTF-8" standalone="no"?>
<svg
   viewBox="0 0 640 640"
   version="1.1"
   id="svg1"
   sodipodi:docname="pen-solid-full.svg"
   inkscape:version="1.4.2 (f4327f4, 2025-05-13)"
   xmlns:inkscape="http://www.inkscape.org/namespaces/inkscape"
   xmlns:sodipodi="http://sodipodi.sourceforge.net/DTD/sodipodi-0.dtd"
   xmlns="http://www.w3.org/2000/svg"
   xmlns:svg="http://www.w3.org/2000/svg">
  <defs
     id="defs1" />
  <sodipodi:namedview
     id="namedview1"
     pagecolor="#ffffff"
     bordercolor="#000000"
     borderopacity="0.25"
     inkscape:showpageshadow="2"
     inkscape:pageopacity="0.0"
     inkscape:pagecheckerboard="0"
     inkscape:deskcolor="#d1d1d1"
     inkscape:zoom="1.1953125"
     inkscape:cx="320"
     inkscape:cy="319.5817"
     inkscape:window-width="1920"
     inkscape:window-height="974"
     inkscape:window-x="-11"
     inkscape:window-y="-11"
     inkscape:window-maximized="1"
     inkscape:current-layer="svg1" />
  <!--!Font Awesome Free 7.2.0 by @fontawesome - https://fontawesome.com License - https://fontawesome.com/license/free Copyright 2026 Fonticons, Inc.-->
  <path
     d="m 397.52262,132.16594 -35.92,35.92 110.32,110.32 35.92,-35.92 c 10.88,-10.8 16.96,-25.52 16.96,-40.88 0,-15.36 -6.08,-30.08 -16.96,-40.88 l -28.56,-28.56 c -10.8,-10.88 -25.52,-16.96 -40.88,-16.96 -15.36,0 -30.08,6.08 -40.88,16.96 z m -63.04,63.04 -172.16,172.08 c -8.56,8.56 -14.8,19.28 -18.08,30.96 l -28.32,102.24 c -1.84,6.64 0,13.84 4.96,18.72 4.96,4.88 12.08,6.8 18.72,4.96 l 102.24,-28.4 c 11.68,-3.28 22.32,-9.44 30.96,-18.08 l 172,-172.16 z"
     id="path1"
     style="stroke-width:0.8" />
  <rect
     style="opacity:0.831063;fill:#000000;fill-opacity:1;stroke-width:14.7519;stroke-linecap:square;stroke-miterlimit:0;stroke-opacity:0.156338"
     id="rect1"
     width="262.69299"
     height="32.627453"
     x="321.25488"
     y="494.4314"
     ry="16.313726"
     rx="12.54902" />
</svg>
