<?xml version="1.0" encoding="UTF-8" standalone="no"?>
<!-- Created with Inkscape (http://www.inkscape.org/) -->

<svg
   width="900mm"
   height="600mm"
   viewBox="0 0 900 600"
   version="1.1"
   id="svg1"
   xml:space="preserve"
   xmlns:inkscape="http://www.inkscape.org/namespaces/inkscape"
   xmlns:sodipodi="http://sodipodi.sourceforge.net/DTD/sodipodi-0.dtd"
   xmlns="http://www.w3.org/2000/svg"
   xmlns:svg="http://www.w3.org/2000/svg"><sodipodi:namedview
     id="namedview1"
     pagecolor="#ffffff"
     bordercolor="#000000"
     borderopacity="0.25"
     inkscape:showpageshadow="2"
     inkscape:pageopacity="0.0"
     inkscape:pagecheckerboard="0"
     inkscape:deskcolor="#d1d1d1"
     inkscape:document-units="mm"><inkscape:page
       x="0"
       y="0"
       width="900"
       height="600"
       id="page2"
       margin="0"
       bleed="0" /></sodipodi:namedview><defs
     id="defs1" /><rect
     style="fill:#245a21;fill-opacity:1;stroke:#050505;stroke-width:2.11667;stroke-linecap:square;stroke-miterlimit:0"
     id="rect3"
     width="900"
     height="600"
     x="1.0583349"
     y="1.0583349"
     inkscape:label="background" /><path
     style="fill:#d1c517;fill-opacity:1"
     d="m 377.83633,363.21725 c -4.80707,-1.18047 -12.84379,-4.21157 -17.85938,-6.73578 -6.6804,-3.36206 -11.66852,-7.1429 -18.65132,-14.13714 -6.10327,-6.11326 -10.70729,-11.98331 -12.79922,-16.3188 -1.79694,-3.72413 -3.26716,-6.99345 -3.26716,-7.26515 0,-0.2717 3.61652,-2.15211 8.03672,-4.17869 4.4202,-2.02657 12.7179,-5.03332 18.43934,-6.68165 5.72145,-1.64833 13.11778,-3.35715 16.4363,-3.79736 4.96766,-0.65899 5.88129,-1.13989 5.17118,-2.72195 -0.47438,-1.05686 -2.30878,-7.54726 -4.07645,-14.42312 -1.76767,-6.87586 -3.5133,-15.5823 -3.87918,-19.34765 -0.66523,-6.8461 -0.66523,-6.8461 4.64412,-6.8461 2.92014,0 8.5803,1.10191 12.57814,2.44868 3.99783,1.34678 10.02479,4.21167 13.39324,6.36644 3.36844,2.15477 8.3852,6.48611 11.14833,9.6252 2.76314,3.13909 5.02389,6.16779 5.02389,6.73043 0,0.56265 -0.20315,1.023 -0.45143,1.023 -0.24829,0 -3.32904,-1.30844 -6.8461,-2.90764 -3.51706,-1.5992 -10.28084,-3.97658 -15.03061,-5.28305 -8.63595,-2.3754 -8.63595,-2.3754 -7.89807,0.82405 0.40583,1.7597 2.04097,7.21781 3.63363,12.12914 1.59267,4.91133 5.41469,13.14809 8.49339,18.30392 3.26577,5.46912 8.50473,12.01442 12.57613,15.71199 3.83818,3.48577 11.07122,8.44771 16.07344,11.02653 5.00221,2.57883 10.28631,5.05017 11.74245,5.49187 2.6321,0.79843 2.63644,0.77671 0.74557,-3.73201 -1.28353,-3.06056 -1.88517,-8.01922 -1.85037,-15.25074 0.0284,-5.89359 0.52802,-11.97432 1.11036,-13.51272 0.92461,-2.4426 1.45845,-1.58408 4.21211,6.77392 1.73431,5.26406 4.8347,12.55029 6.88974,16.19162 2.05505,3.64134 4.18176,6.62062 4.72604,6.62062 0.54427,0 2.61165,-2.83508 4.59418,-6.30018 1.98253,-3.4651 5.07109,-10.75133 6.86347,-16.19162 2.87058,-8.71288 3.39134,-9.55818 4.3706,-7.09436 0.61144,1.5384 1.12644,7.61913 1.14443,13.51272 0.0223,7.30444 -0.58358,12.15932 -1.90329,15.25074 -1.92803,4.51643 -1.9251,4.5318 0.71151,3.73201 1.45613,-0.4417 6.66587,-2.87516 11.5772,-5.40769 4.91132,-2.53253 11.7161,-7.04321 15.12172,-10.02374 3.40562,-2.98052 8.82237,-9.35181 12.03722,-14.15841 3.21485,-4.80661 7.45062,-13.22674 9.41282,-18.71141 1.9622,-5.48467 3.89103,-11.67334 4.2863,-13.75262 0.71867,-3.78049 0.71867,-3.78049 -7.86579,-1.41936 -4.72145,1.29863 -11.46206,3.66958 -14.97912,5.26878 -3.51706,1.5992 -6.59781,2.90764 -6.84609,2.90764 -0.24829,0 -0.45144,-0.46035 -0.45144,-1.023 0,-0.56264 2.20114,-3.52361 4.89141,-6.57993 2.69028,-3.05631 7.23887,-7.17202 10.10798,-9.14603 2.86912,-1.974 8.57076,-4.85026 12.67032,-6.39168 4.09955,-1.54142 10.13264,-2.9929 13.40686,-3.2255 5.95312,-0.42292 5.95312,-0.42292 5.62043,5.5302 -0.18298,3.27422 -0.89472,8.89993 -1.58165,12.50157 -0.68693,3.60164 -2.31401,10.03101 -3.61574,14.2875 -1.30173,4.25648 -2.61989,8.33701 -2.92925,9.06784 -0.34909,0.82471 1.71914,1.63145 5.45206,2.12664 3.30799,0.43882 10.6957,2.14649 16.41715,3.79482 5.72144,1.64833 14.02868,4.65947 18.46053,6.69142 6.98418,3.20216 7.95551,4.02663 7.28943,6.18733 -0.42267,1.37108 -2.13931,4.9039 -3.81476,7.85069 -1.67545,2.9468 -7.09881,9.39031 -12.05192,14.31892 -6.93202,6.89774 -11.33595,10.09167 -19.12597,13.87104 -5.56617,2.70045 -14.04023,5.83347 -18.83124,6.96225 -6.95837,1.63943 -12.10853,1.92602 -25.59844,1.42448 -9.28813,-0.34533 -19.03064,-1.30784 -21.65001,-2.13891 -4.7625,-1.51105 -4.7625,-1.51105 8.33437,-3.11223 7.20329,-0.88065 18.01347,-2.90816 24.02263,-4.50557 6.00917,-1.59742 14.31378,-4.45545 18.45469,-6.35117 4.14092,-1.89573 10.47573,-5.67595 14.07737,-8.40049 3.60164,-2.72454 8.27631,-7.22422 10.38816,-9.9993 2.11184,-2.77507 3.85313,-5.38872 3.86953,-5.80812 0.0164,-0.41939 -4.14705,-1.88957 -9.25211,-3.26706 -5.10505,-1.37749 -12.52145,-2.84313 -16.48088,-3.25697 -7.1541,-0.74775 -7.21654,-0.72739 -10.0199,3.26706 -1.55152,2.21073 -5.78836,7.16465 -9.41521,11.00872 -3.62685,3.84406 -9.54107,8.99251 -13.14271,11.441 -3.60164,2.44849 -8.85223,5.6233 -11.66797,7.05513 -2.81574,1.43183 -9.96316,4.18615 -15.88315,6.12071 -5.91999,1.93456 -13.00314,3.51739 -15.74034,3.51739 -2.73719,0 -8.89128,-1.08478 -13.67574,-2.41063 -4.78446,-1.32584 -12.08025,-3.94374 -16.21287,-5.81756 -4.13261,-1.87381 -10.67174,-5.55143 -14.5314,-8.17247 -3.85966,-2.62104 -10.38928,-8.36991 -14.51026,-12.77525 -4.12098,-4.40534 -8.07467,-9.28701 -8.78597,-10.84815 -0.96503,-2.11801 -2.24695,-2.83844 -5.05069,-2.83844 -2.06657,0 -6.93655,0.56973 -10.82217,1.26606 -3.88562,0.69633 -9.87761,2.13363 -13.31554,3.194 -3.43793,1.06036 -6.25078,2.42636 -6.25078,3.03555 0,0.60919 3.88441,4.98515 8.63203,9.72437 6.29008,6.27895 11.0591,9.78158 17.57778,12.91008 4.92016,2.36133 14.02844,5.6564 20.24062,7.32237 6.21219,1.66597 17.03823,3.67037 24.05788,4.45421 7.01966,0.78384 12.54033,1.64784 12.26817,1.92 -0.27216,0.27216 -3.87239,1.21931 -8.0005,2.10477 -4.12812,0.88546 -13.93504,1.58931 -21.79317,1.56411 -9.59978,-0.0308 -17.15513,-0.75002 -23.02761,-2.19213 z m 38.27558,-55.4237 c 0.38265,-9.36459 1.30146,-14.32084 4.30408,-23.21719 2.09967,-6.22101 6.01166,-15.42957 8.69331,-20.46346 2.68165,-5.03388 8.26813,-13.74033 12.41439,-19.34765 4.14627,-5.60733 8.01483,-10.19514 8.59681,-10.19514 0.58199,0 2.92299,2.27707 5.20223,5.06016 2.27923,2.78309 6.6879,8.99391 9.79704,13.80184 3.10914,4.80793 7.69462,13.11254 10.18997,18.45469 2.49534,5.34215 5.39964,13.06435 6.45398,17.16046 1.05435,4.0961 2.46411,11.81076 3.1328,17.1437 0.66869,5.33294 0.8883,10.54972 0.48801,11.59284 -0.46398,1.20913 -2.37114,-2.28142 -5.26148,-9.62978 -2.49354,-6.33951 -7.00007,-15.71131 -10.01451,-20.82623 -3.01445,-5.11493 -8.30836,-13.01756 -11.76427,-17.56142 -3.4559,-4.54385 -6.91919,-8.46158 -7.69621,-8.70607 -0.77701,-0.24449 -3.88743,2.66954 -6.91204,6.47561 -3.0246,3.80608 -8.45661,11.83287 -12.07112,17.83733 -3.61451,6.00445 -8.70207,16.18429 -11.30567,22.62187 -4.73383,11.70469 -4.73383,11.70469 -4.24732,-0.20156 z"
     id="path5"
     inkscape:label="lotas" /><g
     inkscape:label="Layer 1"
     inkscape:groupmode="layer"
     id="layer1"><rect
       style="fill:#c20617;fill-opacity:1;stroke:#050505;stroke-width:2.11667;stroke-linecap:square;stroke-miterlimit:0"
       id="rect1"
       width="900"
       height="100"
       x="1.0583349"
       y="1.0583349"
       inkscape:label="red1" /><rect
       style="fill:#c20617;fill-opacity:1;stroke:none;stroke-width:2.11667;stroke-linecap:square;stroke-miterlimit:0"
       id="rect2"
       width="900"
       height="100"
       x="-1.4210855e-14"
       y="500"
       inkscape:label="red2" /><rect
       style="fill:#d1c517;fill-opacity:1;stroke:none;stroke-width:2.11667;stroke-linecap:square;stroke-miterlimit:0"
       id="rect4"
       width="900"
       height="20"
       x="0"
       y="100"
       inkscape:label="line1" /><rect
       style="fill:#d1c517;fill-opacity:1;stroke:none;stroke-width:2.11667;stroke-linecap:square;stroke-miterlimit:0"
       id="rect5"
       width="900"
       height="20"
       x="-1.4210855e-14"
       y="480"
       inkscape:label="line2" /></g></svg>
