<?xml version="1.0" encoding="UTF-8" standalone="no"?>
<!-- Created with Inkscape (http://www.inkscape.org/) -->

<svg
   width="240mm"
   height="240mm"
   viewBox="0 0 240 240"
   version="1.1"
   id="svg1"
   xml:space="preserve"
   inkscape:version="1.4.2 (f4327f4, 2025-05-13)"
   sodipodi:docname="conpas.svg"
   xmlns:inkscape="http://www.inkscape.org/namespaces/inkscape"
   xmlns:sodipodi="http://sodipodi.sourceforge.net/DTD/sodipodi-0.dtd"
   xmlns="http://www.w3.org/2000/svg"
   xmlns:svg="http://www.w3.org/2000/svg"><sodipodi:namedview
     id="namedview1"
     pagecolor="#ffffff"
     bordercolor="#000000"
     borderopacity="0.25"
     inkscape:showpageshadow="2"
     inkscape:pageopacity="0.0"
     inkscape:pagecheckerboard="0"
     inkscape:deskcolor="#d1d1d1"
     inkscape:document-units="mm"
     inkscape:zoom="0.68150253"
     inkscape:cx="396.91709"
     inkscape:cy="443.87216"
     inkscape:window-width="1920"
     inkscape:window-height="974"
     inkscape:window-x="-11"
     inkscape:window-y="-11"
     inkscape:window-maximized="1"
     inkscape:current-layer="layer1" /><defs
     id="defs1" /><g
     inkscape:label="Layer 1"
     inkscape:groupmode="layer"
     id="layer1"><path
       style="fill:#000000"
       d="m 119.63158,207.90295 c -0.78513,-11.50225 -1.52138,-20.48732 -2.27097,-27.71458 l -0.26883,-2.59195 -0.98006,-0.0564 c -1.31508,-0.0757 -3.7418,-0.35117 -5.29805,-0.60145 -14.128698,-2.2722 -26.858497,-9.71092 -35.881396,-20.96747 -8.400176,-10.47967 -12.83548,-23.56706 -12.563588,-37.07176 0.121801,-6.04978 1.023761,-11.34339 2.892428,-16.97566 1.672797,-5.041915 3.691582,-9.22609 6.521882,-13.517388 2.377365,-3.604559 4.629399,-6.342632 7.761497,-9.436598 2.928831,-2.893174 5.505885,-4.982043 8.871142,-7.190635 8.360131,-5.48669 17.636515,-8.581147 27.922535,-9.314519 0.43074,-0.03071 0.78316,-0.08995 0.78316,-0.131633 0,-0.04169 0.13188,-1.342567 0.29306,-2.890845 0.7417,-7.124727 1.73835,-19.476523 2.38771,-29.591488 0.0815,-1.269274 0.17276,-2.259874 0.20283,-2.201333 0.0301,0.05854 0.1,0.849388 0.15539,1.757438 0.59211,9.706042 2.12539,28.31757 2.68648,32.609621 l 0.0515,0.393956 0.77335,0.05506 c 6.44488,0.458865 12.23547,1.7843 18.04535,4.130489 9.46471,3.822109 17.93913,10.329396 24.23078,18.606205 9.93249,13.066399 13.80121,29.834249 10.60865,45.980139 -2.76057,13.96115 -10.51492,26.31947 -21.89389,34.8929 -6.92903,5.22065 -14.93532,8.81073 -23.35954,10.4746 -2.54588,0.50284 -5.24834,0.86344 -7.41867,0.98991 l -0.984,0.0573 -0.0551,0.51739 c -0.90986,8.54706 -2.08485,22.8734 -2.68464,32.73305 -0.0552,0.90805 -0.12441,1.67858 -0.15371,1.71229 -0.0293,0.0337 -0.19819,-2.06179 -0.37532,-4.65667 z M 116.35933,171.562 c 0,-0.18627 -0.015,-0.33867 -0.0334,-0.33867 -0.0184,0 -0.048,0.1524 -0.0657,0.33867 -0.0178,0.18627 -0.003,0.33867 0.0334,0.33867 0.0362,0 0.0657,-0.1524 0.0657,-0.33867 z m 9.42813,0.10826 c 0.0399,-0.0246 0.0463,-0.32417 0.0143,-0.66578 -0.0566,-0.60341 -0.0526,-0.62229 0.1392,-0.66215 0.50658,-0.10529 1.60348,-0.22406 1.67291,-0.18114 0.0427,0.0264 0.10408,0.2957 0.13652,0.59854 0.0324,0.30284 0.0947,0.57272 0.13842,0.59973 0.0585,0.0361 1.72018,-0.19785 1.82073,-0.2564 0.008,-0.005 -0.0387,-0.29152 -0.10454,-0.63702 -0.0658,-0.34551 -0.10785,-0.64004 -0.0934,-0.65452 0.0825,-0.0825 1.77894,-0.36949 1.83465,-0.31033 0.0369,0.0391 0.1184,0.30694 0.18122,0.59513 0.0628,0.28819 0.15231,0.53094 0.19887,0.53944 0.0466,0.008 0.45615,-0.0722 0.91017,-0.17942 0.59195,-0.13974 0.8255,-0.23091 0.8255,-0.32222 0,-0.07 -0.0625,-0.34996 -0.1388,-0.62204 -0.0764,-0.27208 -0.12139,-0.51212 -0.10009,-0.53341 0.0525,-0.0524 1.77965,-0.56356 1.79785,-0.53202 0.008,0.0138 0.0997,0.29808 0.20402,0.63183 l 0.1896,0.60682 0.88638,-0.29682 c 0.4875,-0.16325 0.88637,-0.33067 0.88637,-0.37205 0,-0.0414 -0.0927,-0.32157 -0.20604,-0.62264 l -0.20605,-0.54741 0.39655,-0.14566 c 0.2181,-0.0801 0.62219,-0.2347 0.89797,-0.34352 0.27579,-0.10883 0.50973,-0.19787 0.51988,-0.19787 0.0101,0 0.10746,0.25216 0.21626,0.56036 0.10881,0.3082 0.24287,0.57764 0.29792,0.59876 0.089,0.0341 1.50801,-0.51746 1.6556,-0.64355 0.0321,-0.0274 -0.0566,-0.31043 -0.19716,-0.62885 -0.14057,-0.31843 -0.24306,-0.58914 -0.22775,-0.6016 0.0153,-0.0125 0.39739,-0.19628 0.84908,-0.4085 0.91926,-0.4319 0.85827,-0.44712 1.19379,0.29788 0.12059,0.26776 0.24168,0.48684 0.26908,0.48684 0.0668,0 0.84619,-0.39386 1.29073,-0.65225 l 0.35753,-0.20781 -0.29184,-0.57952 -0.29184,-0.57952 0.65398,-0.35802 c 0.35969,-0.19692 0.73551,-0.41101 0.83516,-0.47576 0.17228,-0.11194 0.19641,-0.0905 0.49098,0.43624 0.17039,0.30468 0.34313,0.55397 0.38386,0.55397 0.13493,0 1.52631,-0.86636 1.52631,-0.95037 0,-0.0453 -0.13912,-0.30784 -0.30916,-0.58332 -0.17003,-0.27548 -0.29386,-0.51362 -0.27516,-0.5292 0.13708,-0.11419 1.37123,-0.91532 1.46621,-0.95176 0.0776,-0.0298 0.24209,0.13494 0.47001,0.47057 0.21976,0.32361 0.38845,0.49463 0.45188,0.45813 0.33464,-0.19254 1.41356,-0.98425 1.41356,-1.03726 0,-0.035 -0.1524,-0.2678 -0.33867,-0.51746 -0.18627,-0.24965 -0.33867,-0.47785 -0.33867,-0.5071 0,-0.05 1.40838,-1.18623 1.4703,-1.18623 0.0158,0 0.2089,0.22934 0.42912,0.50964 l 0.4004,0.50964 0.3291,-0.26065 c 0.181,-0.14335 0.50969,-0.42414 0.7304,-0.62397 l 0.40131,-0.36333 -0.39865,-0.45571 c -0.21925,-0.25064 -0.39864,-0.47951 -0.39864,-0.5086 0,-0.0291 0.31022,-0.333 0.68937,-0.67536 l 0.68938,-0.62247 0.46099,0.49526 0.46099,0.49527 0.66973,-0.66581 0.66974,-0.66581 -0.4593,-0.46788 -0.45931,-0.46789 0.67109,-0.7034 0.67109,-0.7034 0.4647,0.43949 c 0.53565,0.5066 0.45227,0.53093 1.24508,-0.36332 l 0.52065,-0.58726 -0.49684,-0.44438 -0.49685,-0.44437 0.61714,-0.73287 0.61714,-0.73286 0.46959,0.38252 c 0.25828,0.21039 0.50933,0.36928 0.5579,0.35309 0.0486,-0.0162 0.33006,-0.33849 0.62552,-0.71622 l 0.5372,-0.68679 -0.51017,-0.39256 c -0.28059,-0.21591 -0.51016,-0.41203 -0.51016,-0.43581 0,-0.0238 0.24182,-0.3813 0.53739,-0.79447 l 0.5374,-0.75122 0.54389,0.36486 0.54389,0.36487 0.52305,-0.78599 0.52304,-0.786 -0.54907,-0.35773 c -0.30199,-0.19676 -0.53817,-0.38392 -0.52483,-0.41592 0.0133,-0.032 0.23205,-0.40668 0.48603,-0.83263 l 0.4618,-0.77444 0.38487,0.22358 c 0.21168,0.12297 0.46645,0.2761 0.56617,0.34028 0.20319,0.1308 0.19668,0.13871 0.82459,-1.00148 l 0.30864,-0.56044 -0.59254,-0.31137 -0.59255,-0.31137 0.42289,-0.84269 c 0.23258,-0.46349 0.43803,-0.8427 0.45655,-0.8427 0.0185,0 0.29035,0.11517 0.60408,0.25593 0.31372,0.14076 0.5826,0.24373 0.5975,0.22884 0.0149,-0.0149 0.19874,-0.39692 0.40853,-0.84894 l 0.38145,-0.82185 -0.56382,-0.25564 c -0.31011,-0.14061 -0.58046,-0.27228 -0.60078,-0.29261 -0.052,-0.052 0.66704,-1.73706 0.7412,-1.73706 0.0334,0 0.30113,0.0977 0.59492,0.21704 0.29378,0.11938 0.56185,0.18605 0.5957,0.14817 0.0339,-0.0379 0.10057,-0.18318 0.14825,-0.32288 0.0477,-0.1397 0.18304,-0.50723 0.3008,-0.81674 l 0.21411,-0.56275 -0.63297,-0.23085 c -0.49637,-0.18104 -0.62179,-0.25997 -0.5812,-0.36575 0.0285,-0.0742 0.16529,-0.4841 0.30404,-0.9109 l 0.25226,-0.77599 0.6317,0.1949 0.6317,0.1949 0.20815,-0.69174 c 0.36594,-1.21605 0.36933,-1.13313 -0.0508,-1.24147 -0.20221,-0.0521 -0.48672,-0.13214 -0.63224,-0.17778 l -0.26459,-0.083 0.22757,-0.9071 c 0.12516,-0.4989 0.26327,-0.90694 0.30692,-0.90676 0.0436,1.9e-4 0.31841,0.0532 0.61061,0.11785 0.29219,0.0646 0.55404,0.0947 0.58188,0.0669 0.0549,-0.0549 0.35974,-1.45371 0.36519,-1.67594 0.003,-0.10403 -0.14697,-0.1619 -0.63321,-0.24507 l -0.63654,-0.10888 0.0469,-0.26293 c 0.0258,-0.14461 0.0974,-0.55924 0.15906,-0.92139 0.0617,-0.36216 0.12947,-0.67582 0.15068,-0.69702 0.0212,-0.0212 0.27417,0.003 0.56216,0.0537 0.28799,0.0507 0.57442,0.0727 0.63652,0.0489 0.0734,-0.0282 0.14945,-0.34491 0.21749,-0.90631 0.0575,-0.47464 0.0899,-0.87773 0.0718,-0.89575 -0.018,-0.018 -0.29688,-0.0624 -0.61969,-0.0986 l -0.58692,-0.0659 0.0231,-0.76093 c 0.0373,-1.2277 0.002,-1.1741 0.74348,-1.118 0.34672,0.0262 0.63483,0.0411 0.64024,0.033 0.005,-0.008 0.034,-0.44332 0.0635,-0.96726 l 0.0537,-0.95263 -0.65616,1.3e-4 -0.65617,1.2e-4 v -1.13312 c 0,-1.29929 -0.0457,-1.23422 0.86783,-1.23639 l 0.48684,-0.001 -0.001,-0.74084 c -6.4e-4,-0.40745 -0.0255,-0.83162 -0.0551,-0.94258 -0.0522,-0.19493 -0.0749,-0.20017 -0.67095,-0.15509 l -0.61696,0.0467 -0.0452,-0.43758 c -0.0249,-0.24066 -0.058,-0.67191 -0.0735,-0.95832 l -0.0283,-0.52074 0.30113,-0.0498 c 0.16562,-0.0274 0.46663,-0.0502 0.6689,-0.0507 l 0.36778,-9.3e-4 -0.0483,-0.40217 c -0.0265,-0.22119 -0.0726,-0.65896 -0.10239,-0.97283 -0.0498,-0.52545 -0.0684,-0.56772 -0.23484,-0.53362 -0.0994,0.0204 -0.39981,0.0608 -0.66756,0.0899 -0.43269,0.047 -0.48746,0.0357 -0.49242,-0.10138 -0.003,-0.0848 -0.0552,-0.49716 -0.11577,-0.91626 -0.0606,-0.4191 -0.0963,-0.78682 -0.0792,-0.81717 0.017,-0.0303 0.25258,-0.0809 0.52346,-0.11233 0.75837,-0.088 0.74427,-0.0618 0.57676,-1.07046 -0.0796,-0.47945 -0.15528,-0.88224 -0.16812,-0.89509 -0.0128,-0.0128 -0.30604,0.0305 -0.65154,0.0964 -0.34551,0.0658 -0.63339,0.11287 -0.63975,0.10453 -0.0248,-0.0325 -0.37155,-1.71971 -0.37155,-1.80778 0,-0.0515 0.14287,-0.11915 0.3175,-0.15046 0.17462,-0.0313 0.45623,-0.093 0.62578,-0.1372 l 0.30828,-0.0803 -0.20561,-0.82472 c -0.11309,-0.4536 -0.2203,-0.86779 -0.23824,-0.92042 -0.0229,-0.0672 -0.21319,-0.0462 -0.6389,0.0705 -0.33345,0.0914 -0.62542,0.1471 -0.64882,0.12371 -0.0411,-0.0411 -0.53151,-1.65448 -0.53451,-1.75838 -8.2e-4,-0.0281 0.28213,-0.13536 0.62878,-0.23827 l 0.63025,-0.1871 -0.29963,-0.8624 c -0.16479,-0.47432 -0.31293,-0.87614 -0.32918,-0.89294 -0.0163,-0.0168 -0.26769,0.0499 -0.55874,0.14817 -0.29104,0.0983 -0.57307,0.1787 -0.62673,0.1787 -0.0761,0 -0.71623,-1.52795 -0.71623,-1.70957 0,-0.0229 0.2667,-0.14631 0.59267,-0.2742 0.32596,-0.12789 0.59266,-0.247 0.59266,-0.26469 0,-0.0325 -0.68883,-1.668891 -0.72051,-1.711629 -0.009,-0.0127 -0.2738,0.09207 -0.58753,0.232834 -0.31372,0.140759 -0.58716,0.255926 -0.60762,0.255926 -0.0423,0 -0.79367,-1.598425 -0.79367,-1.688346 0,-0.03219 0.23155,-0.169192 0.51456,-0.304458 0.28301,-0.135266 0.53188,-0.273956 0.55304,-0.308199 0.0302,-0.04891 -0.6657,-1.544598 -0.77465,-1.664883 -0.0144,-0.01589 -0.27866,0.112319 -0.58727,0.284902 -0.3086,0.172582 -0.58269,0.292197 -0.60908,0.26581 -0.0845,-0.08447 -0.8746,-1.52002 -0.8746,-1.589015 0,-0.03654 0.24456,-0.212892 0.54346,-0.391904 l 0.54347,-0.325475 -0.47738,-0.779883 c -0.26256,-0.428935 -0.50862,-0.779883 -0.54681,-0.779883 -0.0382,0 -0.26743,0.13335 -0.50945,0.296334 -0.24202,0.162983 -0.48245,0.296333 -0.53429,0.296333 -0.093,0 -1.051,-1.373135 -1.051,-1.506502 0,-0.03786 0.22972,-0.230831 0.51048,-0.428831 l 0.51048,-0.360002 -0.43251,-0.609166 c -0.23789,-0.335041 -0.48487,-0.681767 -0.54885,-0.770502 -0.11153,-0.154689 -0.13481,-0.147491 -0.5648,0.174687 -0.24666,0.184814 -0.49093,0.361245 -0.54282,0.392071 -0.082,0.04872 -1.08059,-1.143183 -1.18441,-1.413727 -0.0196,-0.05112 0.17435,-0.256982 0.43105,-0.457462 0.25669,-0.200481 0.46671,-0.393553 0.46671,-0.429049 0,-0.0355 -0.26375,-0.376801 -0.58611,-0.758455 l -0.58611,-0.693916 -0.49339,0.4319 -0.49339,0.431899 -0.65587,-0.705639 -0.65587,-0.705639 0.47851,-0.436893 0.47851,-0.436892 -0.26017,-0.325108 c -0.1431,-0.178809 -0.43491,-0.49511 -0.64847,-0.702891 l -0.38829,-0.377783 -0.45907,0.453365 -0.45907,0.453365 -0.32377,-0.259115 c -0.17807,-0.142514 -0.49257,-0.432625 -0.69889,-0.644693 l -0.37512,-0.385578 0.16068,-0.192888 c 0.0884,-0.106089 0.28762,-0.329759 0.44277,-0.497045 l 0.28209,-0.304157 -0.68233,-0.584843 c -0.37529,-0.321664 -0.71356,-0.595378 -0.75171,-0.608253 -0.0382,-0.01287 -0.2374,0.187151 -0.44275,0.4445 -0.20535,0.25735 -0.39283,0.467732 -0.41661,0.467516 -0.0746,-6.77e-4 -1.39649,-1.098863 -1.42543,-1.18422 -0.0151,-0.04466 0.1464,-0.294704 0.35897,-0.555655 l 0.38649,-0.474457 -0.44363,-0.346149 c -0.244,-0.190382 -0.58299,-0.454481 -0.75331,-0.586886 l -0.30967,-0.240737 -0.36766,0.506447 c -0.20221,0.278546 -0.39824,0.507558 -0.43562,0.508916 -0.0374,0.0014 -0.40591,-0.231723 -0.81895,-0.517955 l -0.75099,-0.520423 0.37331,-0.556476 0.37331,-0.556476 -0.76067,-0.489435 c -0.41837,-0.269189 -0.78996,-0.489434 -0.82575,-0.489434 -0.0358,0 -0.18953,0.208077 -0.34164,0.462393 -0.15212,0.254317 -0.31543,0.486409 -0.36292,0.515762 -0.0475,0.02935 -0.44777,-0.162308 -0.8895,-0.425912 l -0.80315,-0.479281 0.1857,-0.311648 c 0.10214,-0.171406 0.25452,-0.428021 0.33863,-0.570254 l 0.15292,-0.258607 -0.76823,-0.418727 c -0.42253,-0.230299 -0.79896,-0.430403 -0.83652,-0.444676 -0.0376,-0.01427 -0.20799,0.223853 -0.37873,0.529167 -0.17074,0.305314 -0.3257,0.555116 -0.34436,0.555116 -0.0187,0 -0.39832,-0.180975 -0.84369,-0.402166 -0.57484,-0.285496 -0.79893,-0.43901 -0.77245,-0.529167 0.0205,-0.06985 0.13686,-0.347386 0.25853,-0.616747 l 0.22122,-0.489748 -0.36006,-0.158009 c -0.19803,-0.08691 -0.58021,-0.257044 -0.8493,-0.378086 -0.26909,-0.121042 -0.50115,-0.220077 -0.51571,-0.220077 -0.0145,0 -0.13405,0.267272 -0.26555,0.593938 -0.27265,0.677274 -0.1555,0.661116 -1.30469,0.179946 l -0.74805,-0.313206 0.23585,-0.590172 c 0.12972,-0.324595 0.2107,-0.613556 0.17996,-0.642136 -0.079,-0.07344 -1.52407,-0.583036 -1.65333,-0.583036 -0.0588,0 -0.19614,0.257175 -0.30518,0.5715 -0.10904,0.314325 -0.20355,0.579588 -0.21002,0.589474 -0.0165,0.02528 -1.73534,-0.535726 -1.78088,-0.581269 -0.0205,-0.02053 0.0403,-0.296218 0.13525,-0.612631 0.0949,-0.316413 0.14765,-0.600371 0.11716,-0.631019 -0.0812,-0.08159 -1.67742,-0.514781 -1.74439,-0.473395 -0.0313,0.01934 -0.12234,0.302204 -0.20232,0.628586 -0.08,0.326381 -0.16153,0.59342 -0.18122,0.59342 -0.23791,0 -1.80831,-0.468863 -1.80738,-0.539616 6.9e-4,-0.05246 0.0587,-0.339016 0.12887,-0.636789 0.0702,-0.297773 0.11725,-0.549076 0.10458,-0.558452 -0.0127,-0.0094 -0.42309,-0.09544 -0.91204,-0.191247 -0.60646,-0.118838 -0.90659,-0.145759 -0.94437,-0.08471 -0.0305,0.04922 -0.0797,0.283994 -0.10937,0.521716 -0.0857,0.685844 -0.0691,0.677516 -1.04043,0.523094 -0.46587,-0.07407 -0.87545,-0.134665 -0.91019,-0.134665 -0.0596,0 0.004,-0.763845 0.0958,-1.152295 0.0394,-0.166439 -0.009,-0.185216 -0.71051,-0.275167 -1.25426,-0.160852 -1.17357,-0.19421 -1.23924,0.512337 -0.0311,0.334882 -0.0688,0.621087 -0.0837,0.636013 -0.0149,0.01493 -0.3774,-0.0036 -0.80551,-0.04115 -0.42811,-0.03756 -0.79011,-0.05655 -0.80446,-0.04221 -0.0374,0.03735 0.55912,4.057018 0.92067,6.204473 1.77318,10.532082 3.97489,17.78186 7.12887,23.473832 0.35479,0.640292 0.67411,1.164163 0.7096,1.164163 0.0852,0 2.08898,-1.071319 3.2115,-1.71703 4.44265,-2.555565 10.05416,-6.527841 18.796,-13.305332 0.30269,-0.234668 0.50743,-0.370111 0.455,-0.300985 -0.0524,0.06913 -0.7722,1.001985 -1.59947,2.073018 -6.97043,9.024369 -11.25655,15.342339 -13.59443,20.038939 l -0.53442,1.0736 0.20716,0.17192 c 0.62172,0.51594 2.34649,1.7274 3.40214,2.38963 1.68483,1.05693 4.99176,2.69057 7.32068,3.61644 4.36277,1.73445 10.12819,3.4565 16.91634,5.05269 1.1176,0.26279 2.08915,0.4994 2.159,0.52578 0.0771,0.0291 -0.006,0.0794 -0.21166,0.12791 -5.55523,1.31123 -11.03691,2.79706 -14.34128,3.88726 -6.27676,2.07089 -11.0787,4.42839 -14.66391,7.19922 -0.64986,0.50224 -0.75473,0.61704 -0.7075,0.77446 0.10269,0.34226 1.65343,3.20218 2.55135,4.70529 1.09413,1.83156 3.40409,5.32074 5.02276,7.58686 1.83362,2.56703 6.12551,8.27299 7.86503,10.45633 0.16695,0.20955 0.2464,0.33909 0.17655,0.28787 -0.0699,-0.0512 -1.11761,-0.85467 -2.32834,-1.78544 -8.4916,-6.52803 -14.00435,-10.3115 -18.71042,-12.84118 -1.06074,-0.57018 -1.37545,-0.70524 -1.45397,-0.62397 -0.16713,0.17299 -1.1066,1.89658 -1.68967,3.09995 -2.93321,6.05369 -5.00832,13.91557 -6.68439,25.32477 -0.27922,1.90067 -0.28766,2.02703 -0.18884,2.82481 l 0.10345,0.83513 0.84992,-0.0602 c 0.46746,-0.0331 0.88253,-0.0803 0.92238,-0.10484 z m -11.51087,-0.29876 c 0.0229,-0.15134 0.0611,-0.42276 0.0849,-0.60316 0.0238,-0.18039 0.058,-0.34266 0.0759,-0.36059 0.0179,-0.0179 0.40656,0.006 0.86364,0.0536 0.45708,0.0474 0.84799,0.0692 0.8687,0.0485 0.0819,-0.0819 -0.63384,-4.84851 -1.21508,-8.09186 -1.49066,-8.31792 -3.31895,-14.53041 -5.74746,-19.52976 -0.43356,-0.89251 -1.00439,-1.98994 -1.26851,-2.43872 l -0.48022,-0.81597 -1.03172,0.54359 c -4.76538,2.51083 -10.635176,6.52509 -19.150378,13.09665 -1.164167,0.89844 -2.173225,1.6756 -2.242352,1.72703 -0.06913,0.0514 0.06638,-0.15414 0.301133,-0.45682 7.76355,-10.01023 12.005529,-16.16098 14.560436,-21.11222 0.440251,-0.85317 0.800451,-1.57232 0.800451,-1.5981 0,-0.0966 -1.69953,-1.34461 -2.881075,-2.11569 -1.625491,-1.06078 -2.420119,-1.50441 -4.579182,-2.55645 -4.768273,-2.32343 -11.089377,-4.37252 -20.174846,-6.54 -1.328767,-0.317 -2.38863,-0.59994 -2.355253,-0.62876 0.03338,-0.0288 0.517887,-0.15694 1.076687,-0.28473 1.732888,-0.39628 6.013551,-1.474 7.789334,-1.96107 8.16935,-2.24077 13.942321,-4.59308 18.317362,-7.46376 1.029966,-0.67581 2.537413,-1.78677 2.715323,-2.00114 0.0915,-0.1102 -0.004,-0.3481 -0.607503,-1.50895 -2.567404,-4.94112 -6.317662,-10.444912 -13.342719,-19.581462 -0.859318,-1.1176 -1.604261,-2.08915 -1.65543,-2.159 -0.05117,-0.06985 0.07842,0.0095 0.287967,0.176349 1.067327,0.849797 4.778426,3.684057 6.646334,5.075971 5.817822,4.335287 10.295011,7.304157 14.148971,9.382327 0.7038,0.379515 1.31441,0.690015 1.35691,0.690015 0.0425,0 0.38928,-0.561971 0.77061,-1.248829 3.44216,-6.200076 5.84891,-14.717782 7.67907,-27.176978 0.33942,-2.310687 0.35328,-2.492102 0.18557,-2.427743 -0.15001,0.05756 -0.22017,-0.209167 -0.22164,-0.842701 l -0.001,-0.496589 -0.4445,0.05051 c -0.24447,0.02778 -0.68341,0.07528 -0.97541,0.105556 l -0.53092,0.05505 0.0404,0.264033 c 0.0222,0.145218 0.0626,0.439393 0.0897,0.653722 l 0.0494,0.38969 -0.78649,0.104231 c -0.43256,0.05733 -0.87221,0.124222 -0.97698,0.148656 -0.14274,0.03329 -0.1905,0.0067 -0.1905,-0.105985 0,-0.08273 -0.0411,-0.38631 -0.0913,-0.674631 l -0.0913,-0.524221 -0.90058,0.161546 c -0.49532,0.08885 -0.91476,0.17572 -0.93208,0.193042 -0.0173,0.01732 0.0246,0.304104 0.0931,0.637293 0.0909,0.441834 0.0986,0.614954 0.0285,0.639625 -0.14256,0.05017 -1.64826,0.376732 -1.73703,0.376732 -0.042,0 -0.12546,-0.246967 -0.18546,-0.548814 -0.06,-0.301848 -0.13166,-0.585334 -0.15925,-0.629971 -0.0377,-0.06107 -1.70648,0.274869 -1.84357,0.371139 -0.0106,0.0074 0.0592,0.290643 0.1551,0.6294 0.0959,0.338757 0.16166,0.627696 0.1462,0.642087 -0.0449,0.04176 -1.79056,0.55408 -1.80878,0.530835 -0.009,-0.01156 -0.10742,-0.294334 -0.21857,-0.628396 l -0.20209,-0.607386 -0.762,0.247349 c -1.08759,0.353039 -1.04538,0.302647 -0.81059,0.96774 0.11436,0.323922 0.16653,0.59255 0.12338,0.635177 -0.0411,0.04063 -0.37959,0.187017 -0.75212,0.32531 -0.37254,0.138293 -0.7397,0.276381 -0.81591,0.306863 -0.11005,0.04402 -0.18687,-0.06767 -0.37321,-0.542622 -0.12905,-0.328925 -0.2661,-0.598045 -0.30456,-0.598045 -0.0776,0 -1.591449,0.643903 -1.648912,0.701366 -0.01994,0.01995 0.07977,0.294881 0.221588,0.610968 0.141818,0.316087 0.247456,0.585099 0.234751,0.597804 -0.02393,0.02393 -1.683354,0.799196 -1.710641,0.799196 -0.0085,0 -0.143115,-0.264008 -0.299216,-0.586683 l -0.283819,-0.586683 -0.833204,0.418121 c -0.458263,0.229967 -0.833205,0.440159 -0.833205,0.467093 0,0.02693 0.13539,0.291071 0.300868,0.586972 l 0.300867,0.538001 -0.195034,0.119826 c -0.320379,0.196835 -1.435315,0.821353 -1.466342,0.821353 -0.01582,0 -0.171237,-0.238125 -0.345368,-0.529167 -0.174132,-0.291042 -0.326926,-0.542677 -0.339543,-0.55919 -0.01848,-0.02419 -1.103657,0.612047 -1.533462,0.899072 -0.07492,0.05004 -0.01151,0.206425 0.232564,0.573539 0.184568,0.27761 0.335699,0.532338 0.335847,0.566062 2.5e-4,0.05683 -1.472096,1.081683 -1.55399,1.081683 -0.02022,0 -0.157119,-0.187571 -0.304231,-0.416825 -0.432148,-0.673445 -0.42172,-0.671841 -1.13996,-0.175322 -0.907633,0.627446 -0.893958,0.594611 -0.477413,1.146321 0.195066,0.258363 0.342561,0.501865 0.327765,0.541113 -0.0148,0.03925 -0.346215,0.322257 -0.736488,0.628906 l -0.709586,0.557545 -0.39108,-0.501752 c -0.215095,-0.275963 -0.418653,-0.494079 -0.452353,-0.484702 -0.08993,0.02502 -1.414042,1.110024 -1.417475,1.161504 -0.0016,0.02408 0.16853,0.239781 0.37808,0.479328 0.20955,0.239547 0.381,0.471589 0.381,0.515648 0,0.04406 -0.306336,0.356715 -0.680747,0.694789 l -0.680748,0.61468 -0.450883,-0.496142 -0.450883,-0.496142 -0.691523,0.672952 -0.691522,0.672952 0.463023,0.463024 0.463023,0.463023 -0.638686,0.7035 -0.638687,0.703501 -0.473418,-0.42195 c -0.260379,-0.232073 -0.500109,-0.421951 -0.532731,-0.421951 -0.03262,0 -0.328304,0.309256 -0.65707,0.687235 l -0.597755,0.687235 0.502621,0.425052 0.502621,0.425052 -0.561083,0.68688 c -0.308596,0.377784 -0.584747,0.714383 -0.61367,0.747998 -0.02892,0.03362 -0.261303,-0.107806 -0.516401,-0.31427 -0.255098,-0.206465 -0.5036,-0.376843 -0.552228,-0.378619 -0.07693,-0.0028 -1.139253,1.352542 -1.139253,1.453506 0,0.02085 0.227334,0.202603 0.505186,0.403893 0.285566,0.206877 0.481654,0.406496 0.451055,0.459176 -0.09957,0.171417 -0.815459,1.192018 -0.938856,1.338463 -0.113059,0.134177 -0.15742,0.120442 -0.615302,-0.1905 -0.271402,-0.184305 -0.524124,-0.334503 -0.561604,-0.333773 -0.03748,7.31e-4 -0.294657,0.34748 -0.571503,0.770554 -0.403933,0.617286 -0.479189,0.783245 -0.381,0.840202 0.0673,0.03904 0.321619,0.197813 0.565161,0.352835 l 0.442803,0.281858 -0.47712,0.802778 c -0.262416,0.441528 -0.485495,0.813895 -0.495731,0.827483 -0.01023,0.01359 -0.248854,-0.110237 -0.530263,-0.275167 -0.281409,-0.164929 -0.543702,-0.299871 -0.582873,-0.299871 -0.08221,0 -0.125714,0.06778 -0.607265,0.946197 l -0.356257,0.649864 0.586737,0.320875 0.586737,0.320875 -0.415724,0.828428 c -0.228649,0.455635 -0.450057,0.828428 -0.492018,0.828428 -0.04196,0 -0.317838,-0.115056 -0.613061,-0.255679 l -0.536769,-0.255678 -0.32689,0.700178 c -0.536663,1.149498 -0.548269,1.025744 0.121479,1.295364 0.322526,0.129838 0.586821,0.258588 0.587323,0.286109 5.01e-4,0.02752 -0.157257,0.437585 -0.350574,0.911245 -0.321483,0.7877 -0.366731,0.85529 -0.530079,0.7918 -0.09823,-0.0382 -0.374314,-0.14724 -0.613529,-0.24237 l -0.434936,-0.17296 -0.305897,0.80903 c -0.168243,0.44497 -0.305897,0.85477 -0.305897,0.91067 0,0.0559 0.257175,0.19086 0.5715,0.2999 0.314325,0.10905 0.581953,0.20592 0.594729,0.21528 0.03386,0.0248 -0.49938,1.68094 -0.564481,1.75319 -0.03027,0.0336 -0.314896,-0.0169 -0.632503,-0.11217 -0.317607,-0.0953 -0.598349,-0.15236 -0.623871,-0.12684 -0.07233,0.0723 -0.515512,1.69525 -0.479557,1.75613 0.0176,0.0298 0.299047,0.11963 0.625429,0.19962 0.326381,0.08 0.593421,0.16153 0.593421,0.18121 0,0.23791 -0.468863,1.80831 -0.539617,1.80739 -0.05246,-6.9e-4 -0.339016,-0.0587 -0.636789,-0.12888 -0.297773,-0.0702 -0.549094,-0.11725 -0.558491,-0.10458 -0.0094,0.0127 -0.09702,0.42215 -0.194727,0.90995 -0.125508,0.62663 -0.150355,0.90377 -0.08467,0.94437 0.05114,0.0316 0.287473,0.0818 0.525195,0.11146 0.690953,0.0863 0.680457,0.0636 0.509685,1.10423 l -0.149342,0.91004 -0.469253,-0.0551 c -0.258089,-0.0303 -0.550434,-0.0755 -0.649655,-0.10043 -0.167921,-0.0421 -0.18721,0.003 -0.278812,0.65898 -0.05413,0.38734 -0.09836,0.82808 -0.0983,0.97942 9.6e-5,0.24629 0.02553,0.27517 0.242291,0.27517 0.1332,0 0.42176,0.0246 0.641244,0.0547 l 0.399062,0.0547 -0.04657,0.3898 c -0.02561,0.21439 -0.0708,0.64545 -0.100413,0.95792 l -0.05385,0.56811 -0.667832,-0.0515 -0.667832,-0.0515 v 0.55106 c 0,0.30309 -0.0235,0.72253 -0.05223,0.93209 l -0.05222,0.38102 0.689941,0.0602 0.689941,0.0602 -0.02388,0.94644 -0.02388,0.94645 -0.656167,0.0247 -0.656167,0.0247 v 0.93422 0.93422 l 0.66691,-0.0276 0.66691,-0.0276 0.05276,0.62661 c 0.09265,1.10042 0.07668,1.25223 -0.137743,1.3097 -0.104775,0.0281 -0.395445,0.0516 -0.645933,0.0522 l -0.455433,0.001 0.05722,0.6985 c 0.100297,1.22443 0.112436,1.25949 0.418946,1.20989 0.145953,-0.0236 0.435502,-0.0531 0.643441,-0.0655 l 0.378072,-0.0226 0.101357,0.71967 c 0.174432,1.23852 0.208189,1.15122 -0.484933,1.25409 -0.330604,0.0491 -0.614835,0.10295 -0.631623,0.11974 -0.04547,0.0455 0.232312,1.70603 0.297944,1.78112 0.03106,0.0355 0.331011,0.0127 0.666551,-0.0507 0.596397,-0.11277 0.610973,-0.11137 0.650254,0.0624 0.0221,0.0978 0.113015,0.51344 0.202032,0.92373 l 0.16185,0.74599 -0.182455,0.0689 c -0.10035,0.0379 -0.335633,0.0946 -0.522853,0.126 -0.592611,0.0994 -0.592868,0.1001 -0.372562,1.01394 0.108124,0.44851 0.218137,0.85033 0.244473,0.89294 0.02731,0.0442 0.299386,0.008 0.633264,-0.0848 0.321959,-0.0893 0.605318,-0.14239 0.629687,-0.11802 0.05517,0.0552 0.511481,1.56685 0.515171,1.70667 0.0015,0.0562 -0.264001,0.18168 -0.589967,0.27876 -0.325967,0.0971 -0.592667,0.20151 -0.592667,0.23207 0,0.20149 0.561789,1.71526 0.636565,1.71526 0.05091,0 0.330685,-0.0804 0.621733,-0.17871 0.291048,-0.0983 0.542274,-0.16496 0.558281,-0.14816 0.11118,0.11667 0.638812,1.71353 0.582444,1.76275 -0.03888,0.0339 -0.29929,0.15027 -0.57869,0.25849 -0.2794,0.10823 -0.52,0.20554 -0.534668,0.21626 -0.02401,0.0175 0.647295,1.65111 0.704289,1.71383 0.01306,0.0144 0.161212,-0.0333 0.329228,-0.10583 0.168017,-0.0726 0.437102,-0.1889 0.597967,-0.25849 l 0.292482,-0.12653 0.336365,0.71778 c 0.517807,1.10498 0.525477,1.01581 -0.112242,1.30497 -0.305298,0.13843 -0.555087,0.2971 -0.555087,0.3526 0,0.12871 0.775728,1.60442 0.840503,1.59893 0.02667,-0.002 0.294625,-0.13067 0.595448,-0.28536 l 0.546952,-0.28126 0.447882,0.79502 c 0.246335,0.43726 0.447882,0.82625 0.447882,0.86444 0,0.0382 -0.09332,0.11194 -0.20738,0.16391 -0.114058,0.052 -0.360911,0.19141 -0.548562,0.30987 l -0.341183,0.21538 0.473311,0.78322 c 0.260322,0.43077 0.481949,0.79292 0.492505,0.80478 0.01056,0.0119 0.255254,-0.13102 0.543774,-0.3175 0.28852,-0.18648 0.541363,-0.33906 0.561874,-0.33906 0.04315,0 1.057661,1.49629 1.057661,1.55993 0,0.0233 -0.2286,0.19767 -0.508,0.38741 -0.2794,0.18973 -0.508,0.36526 -0.508,0.39006 0,0.055 0.443337,0.71057 0.803486,1.18811 l 0.264344,0.35051 0.498815,-0.37316 c 0.274349,-0.20523 0.526007,-0.36296 0.559242,-0.3505 0.03323,0.0125 0.308615,0.34646 0.611956,0.74225 l 0.55153,0.7196 -0.309084,0.25406 c -0.169997,0.13974 -0.397339,0.33027 -0.505204,0.4234 l -0.196119,0.16933 0.562756,0.67734 c 0.309515,0.37253 0.591936,0.68839 0.6276,0.70191 0.03566,0.0135 0.267505,-0.1484 0.515201,-0.35983 0.247696,-0.21143 0.471683,-0.3844 0.49775,-0.38437 0.02607,2e-5 0.331759,0.31096 0.679316,0.69097 l 0.631922,0.69093 -0.504096,0.45086 -0.504096,0.45086 0.674288,0.67826 0.674289,0.67827 0.467885,-0.46058 0.467886,-0.46058 0.689136,0.66609 0.689137,0.66608 -0.432985,0.4858 -0.432986,0.4858 0.673695,0.62126 c 0.370531,0.3417 0.695101,0.62127 0.721265,0.62127 0.02617,0 0.217334,-0.2077 0.424821,-0.46156 0.207488,-0.25386 0.407511,-0.46341 0.444497,-0.46567 0.09686,-0.006 1.41442,1.10932 1.41442,1.19722 0,0.0405 -0.1524,0.26645 -0.338667,0.5021 -0.186267,0.23564 -0.338667,0.46141 -0.338667,0.5017 0,0.0908 1.312255,1.09687 1.430738,1.09687 0.04734,0 0.230561,-0.2081 0.407165,-0.46245 0.176604,-0.25435 0.353396,-0.4639 0.392873,-0.46567 0.05874,-0.003 1.290851,0.81805 1.51589,1.0097 0.03502,0.0298 -0.108025,0.29804 -0.317868,0.59604 l -0.381532,0.54183 0.7412,0.48757 c 0.407661,0.26817 0.780776,0.48909 0.829146,0.49095 0.04837,0.002 0.215551,-0.20718 0.371515,-0.46452 0.155964,-0.25734 0.316004,-0.48794 0.355644,-0.51244 0.03964,-0.0245 0.434585,0.17179 0.877653,0.43619 l 0.80558,0.48073 -0.18275,0.30687 c -0.100513,0.16878 -0.254465,0.42793 -0.342117,0.5759 l -0.159367,0.26904 0.729522,0.39766 c 0.401238,0.21872 0.7883,0.40245 0.860138,0.4083 0.07726,0.006 0.246469,-0.19685 0.414264,-0.49736 0.156007,-0.2794 0.313273,-0.50713 0.349478,-0.50606 0.08337,0.002 1.632162,0.79373 1.632162,0.83386 0,0.0164 -0.116542,0.2868 -0.258982,0.60095 -0.14244,0.31414 -0.247215,0.57872 -0.232833,0.58795 0.122071,0.0784 1.595705,0.72696 1.651649,0.72696 0.03987,0 0.180374,-0.24765 0.312237,-0.55033 0.131863,-0.30268 0.279646,-0.55033 0.328407,-0.55033 0.19473,0 1.66846,0.64102 1.66962,0.72623 6.8e-4,0.0502 -0.0961,0.3307 -0.21499,0.62338 -0.11893,0.29268 -0.2025,0.54588 -0.18572,0.56266 0.10333,0.10333 1.70965,0.62226 1.75701,0.56761 0.0319,-0.0368 0.14473,-0.30501 0.25077,-0.59605 0.10605,-0.29104 0.2182,-0.52917 0.24923,-0.52917 0.18401,0 1.71295,0.5698 1.71084,0.63759 -0.001,0.0451 -0.0672,0.32075 -0.14613,0.61246 -0.079,0.29171 -0.12353,0.55042 -0.099,0.57491 0.0245,0.0245 0.42082,0.15209 0.88073,0.28356 0.58127,0.16617 0.85224,0.2103 0.8888,0.14476 0.0289,-0.0519 0.0972,-0.28511 0.15172,-0.51835 0.15893,-0.68006 0.12139,-0.66554 1.10481,-0.42742 0.48014,0.11626 0.88759,0.22599 0.90543,0.24383 0.0179,0.0178 -0.0276,0.2912 -0.10091,0.60746 -0.0733,0.31626 -0.10267,0.60403 -0.0652,0.63949 0.0375,0.0355 0.39204,0.12771 0.78786,0.205 0.39581,0.0773 0.78331,0.15868 0.8611,0.18086 0.11737,0.0335 0.15897,-0.0683 0.24445,-0.59825 0.1187,-0.73583 0.0573,-0.70814 1.13811,-0.51285 0.37254,0.0673 0.7292,0.12371 0.79259,0.12533 0.083,0.002 0.10198,0.0799 0.0678,0.27812 -0.0261,0.15134 -0.0721,0.45124 -0.10207,0.66644 l -0.0546,0.39127 0.57948,0.0841 c 0.31871,0.0462 0.73968,0.0892 0.93548,0.0956 0.33967,0.011 0.3579,-0.001 0.39759,-0.26367 z m 5.17573,-29.70732 c -0.11873,-8.16668 -0.22505,-15.28418 -0.23626,-15.81666 l -0.0204,-0.96814 -0.59694,-0.10044 c -1.26149,-0.21225 -2.37255,-0.65045 -3.42763,-1.35187 -1.26267,-0.83942 -2.53464,-2.39475 -3.09498,-3.78444 -0.14791,-0.36685 -0.29015,-0.68822 -0.31609,-0.71416 -0.17655,-0.17655 -8.45381,0.66871 -12.997806,1.32731 -3.679228,0.53326 -5.058913,0.78261 -4.835324,0.87387 0.680918,0.27794 3.929021,1.91209 4.821766,2.42588 8.819404,5.07564 14.475604,12.29814 18.201244,23.24147 0.94932,2.78844 2.10551,6.97055 2.54519,9.20631 0.0617,0.31368 0.12587,0.55661 0.14263,0.53985 0.0168,-0.0168 -0.0667,-6.7123 -0.18541,-14.87898 z m 2.10812,9.95882 c 4.04474,-15.05357 10.85267,-23.94279 22.69629,-29.63492 0.88492,-0.4253 1.7028,-0.81171 1.81752,-0.85869 0.44619,-0.18275 -7.75852,-1.35658 -12.86625,-1.84074 -3.20872,-0.30416 -4.91687,-0.41893 -4.98614,-0.33503 -0.033,0.04 -0.14933,0.30131 -0.25848,0.58071 -0.35578,0.91067 -0.95296,1.82407 -1.71892,2.62912 -1.40486,1.47655 -2.91295,2.29094 -4.84319,2.6154 l -0.59694,0.10034 -0.0207,0.62957 c -0.0306,0.92993 -0.44659,29.73855 -0.43941,30.43224 0.006,0.58124 0.0147,0.55675 0.45194,-1.27 0.2452,-1.02447 0.58914,-2.39607 0.76431,-3.048 z m -21.18488,-11.48385 c 1.26461,-0.79864 3.12494,-1.88396 4.32094,-2.52082 0.54716,-0.29136 0.99483,-0.5508 0.99483,-0.57653 0,-0.17397 -2.40776,-2.9448 -2.55893,-2.9448 -0.0532,0 -0.35954,0.4953 -0.6807,1.10067 -0.56099,1.05742 -2.38601,4.14832 -3.123193,5.28949 -0.33741,0.52232 -0.34287,0.54081 -0.115808,0.39203 0.131064,-0.0859 0.654352,-0.41889 1.162861,-0.74004 z m 39.95642,-0.17898 c -1.04949,-1.65787 -1.74528,-2.83965 -2.63236,-4.47093 l -0.82902,-1.52454 -0.84186,0.95515 c -0.93322,1.05882 -1.72007,2.02356 -1.72007,2.10897 0,0.0306 0.54292,0.35034 1.2065,0.71057 1.23047,0.66798 3.54307,2.03741 4.7625,2.82016 0.37253,0.23913 0.68488,0.43545 0.6941,0.43628 0.009,8.3e-4 -0.27869,-0.46522 -0.63979,-1.03566 z m -18.70286,-18.88271 c 0.84807,-0.31092 1.46026,-0.71393 2.05275,-1.35136 0.90785,-0.97671 1.34874,-2.11092 1.34162,-3.45143 -0.0102,-1.92583 -1.05808,-3.6204 -2.76977,-4.4792 -0.82766,-0.41527 -1.47736,-0.54301 -2.50666,-0.49288 -1.04226,0.0508 -1.68529,0.247 -2.4687,0.75334 -1.48401,0.95916 -2.30604,2.4764 -2.3086,4.26107 -0.002,1.46359 0.50424,2.63376 1.57806,3.6469 0.62456,0.58927 1.65879,1.14999 2.39385,1.29786 0.72118,0.14508 2.03473,0.055 2.68745,-0.1843 z m -2.15829,-0.2078 c -0.38026,-0.0398 -0.37777,-0.0173 -0.13636,-1.22949 0.17978,-0.90268 0.18327,-0.91017 0.4234,-0.91017 H 120 v 1.10067 c 0,0.83168 -0.0259,1.09719 -0.10583,1.08643 -0.0582,-0.008 -0.24871,-0.0292 -0.42334,-0.0474 z m 1.20553,-1.08628 c -0.19532,-0.9939 -0.18398,-1.09951 0.1238,-1.15214 0.13727,-0.0235 0.23287,0.12902 0.56618,0.90309 0.22057,0.51224 0.40342,0.95388 0.40635,0.98143 0.006,0.0579 -0.5878,0.24624 -0.77667,0.24624 -0.0949,0 -0.17633,-0.24928 -0.31966,-0.97862 z m -2.90516,0.54739 c -0.30521,-0.16207 -0.31683,-0.18257 -0.20245,-0.35719 0.0667,-0.10189 0.30365,-0.471 0.52647,-0.82025 0.22281,-0.34925 0.43365,-0.6671 0.46852,-0.70634 0.0492,-0.0554 0.3307,0.0335 0.48281,0.15242 0.0648,0.0506 -0.74328,1.86952 -0.83737,1.88478 -0.0628,0.0102 -0.25989,-0.0589 -0.43798,-0.15342 z m 4.16164,-1.10752 -0.56483,-0.85791 0.18317,-0.14832 c 0.18014,-0.14587 0.19504,-0.13697 0.90349,0.53964 0.39618,0.37838 0.73129,0.71246 0.74469,0.74241 0.0277,0.0619 -0.54843,0.58652 -0.64114,0.58385 -0.0333,-9.6e-4 -0.31473,-0.38781 -0.62538,-0.85967 z m -5.46865,0.002 -0.27004,-0.35136 0.85268,-0.5907 0.85268,-0.5907 0.17401,0.17401 0.17401,0.17401 -0.70197,0.76805 c -0.38608,0.42242 -0.72657,0.76805 -0.75664,0.76805 -0.0301,0 -0.1762,-0.15812 -0.32473,-0.35136 z m 6.39923,-0.97553 c -0.77683,-0.52489 -0.81477,-0.56436 -0.72725,-0.75645 0.0508,-0.11146 0.13895,-0.20266 0.19591,-0.20266 0.11972,0 1.74436,0.66339 1.83457,0.74911 0.08,0.076 -0.27865,0.77646 -0.39388,0.76933 -0.0494,-0.003 -0.45858,-0.25475 -0.90935,-0.55933 z m -7.18284,-0.41251 c -0.22821,-0.60024 -0.225,-0.60761 0.31163,-0.71649 0.27177,-0.0551 0.73476,-0.14964 1.02887,-0.21001 l 0.53475,-0.10977 0.0822,0.21629 c 0.0452,0.11896 0.0522,0.24197 0.0156,0.27336 -0.0943,0.0807 -1.71292,0.76202 -1.81049,0.76202 -0.0444,0 -0.11754,-0.0969 -0.16258,-0.2154 z m 3.4649,0.0183 c -0.24534,-0.12957 -0.46014,-0.33767 -0.62715,-0.60757 -0.21571,-0.34863 -0.25396,-0.49539 -0.25378,-0.97361 1.9e-4,-0.47418 0.0375,-0.61943 0.23623,-0.91973 0.38848,-0.58704 1.11738,-0.9231 1.76486,-0.81371 0.45604,0.077 1.0859,0.52488 1.28461,0.91337 0.21576,0.42181 0.27341,0.97577 0.14274,1.37169 -0.13169,0.39905 -0.63438,0.96296 -0.99177,1.11258 -0.43314,0.18133 -1.12513,0.1444 -1.55574,-0.083 z m 4.24119,-0.85143 c -0.86506,-0.17883 -0.88976,-0.19031 -0.91695,-0.42628 -0.0158,-0.13717 0.021,-0.27352 0.0847,-0.3139 0.0619,-0.0393 0.54124,-0.072 1.06511,-0.0727 l 0.9525,-0.001 v 0.37408 c 0,0.4391 -0.0651,0.64544 -0.19956,0.63289 -0.0532,-0.005 -0.49682,-0.0917 -0.98577,-0.19281 z M 115.428,115.941 c 0,-0.23009 0.0286,-0.43528 0.0635,-0.45598 0.0349,-0.0207 0.50165,0.0449 1.03717,0.14579 l 0.97366,0.18342 0.0265,0.27255 0.0265,0.27255 h -1.0637 -1.0637 z m 6.90539,-0.39599 c -0.0306,-0.12191 -0.0442,-0.2326 -0.0303,-0.24597 0.052,-0.05 1.78544,-0.80237 1.84858,-0.80237 0.0745,0 0.35443,0.7715 0.29977,0.82616 -0.0388,0.0388 -1.80951,0.43586 -1.96572,0.44079 -0.0532,0.002 -0.12169,-0.0967 -0.15229,-0.21861 z m -5.55072,-0.50805 c -0.48895,-0.19943 -0.9271,-0.37759 -0.97367,-0.39592 -0.0487,-0.0192 -0.002,-0.20431 0.10862,-0.43551 0.13233,-0.27537 0.23193,-0.38735 0.31585,-0.35514 0.21548,0.0827 1.64998,1.07159 1.64686,1.13529 -0.002,0.0337 -0.0493,0.14065 -0.10583,0.2376 -0.10186,0.17462 -0.11123,0.17286 -0.99183,-0.18632 z m 5.09495,-0.30897 -0.17388,-0.17388 0.684,-0.74839 c 0.3762,-0.41161 0.73128,-0.74839 0.78908,-0.74839 0.0578,0 0.20949,0.13689 0.33709,0.30418 0.27453,0.35993 0.30951,0.31052 -0.73133,1.03293 l -0.73109,0.50742 z m -4.44744,-0.89609 -0.74596,-0.74943 0.33657,-0.26657 c 0.18512,-0.14661 0.35651,-0.26657 0.38086,-0.26657 0.0244,0 0.30159,0.38036 0.61607,0.84524 0.55972,0.82742 0.56852,0.84884 0.41724,1.016 -0.085,0.0939 -0.178,0.17076 -0.20668,0.17076 -0.0287,0 -0.38782,-0.33724 -0.7981,-0.74943 z m 3.69165,0.3037 c -0.10477,-0.0485 -0.1905,-0.11861 -0.1905,-0.15585 0,-0.0634 0.67694,-1.86668 0.72118,-1.92112 0.0352,-0.0433 0.80282,0.35218 0.80282,0.41364 0,0.0586 -0.98552,1.59545 -1.08845,1.69743 -0.03,0.0297 -0.14027,0.0144 -0.24505,-0.0341 z m -2.33511,-0.59143 c -0.55589,-1.26624 -0.60607,-1.42487 -0.47662,-1.5068 0.16058,-0.10164 0.66843,-0.19906 0.72786,-0.13963 0.0253,0.0253 0.13708,0.47581 0.24833,1.00107 0.21097,0.99615 0.19823,1.08549 -0.15519,1.08856 -0.0994,8.6e-4 -0.21447,-0.14729 -0.34438,-0.4432 z m 1.31911,0.29947 c -0.18554,-0.0351 -0.1905,-0.0638 -0.1905,-1.10032 v -1.06424 l 0.43482,0.0515 c 0.23915,0.0283 0.44523,0.0622 0.45796,0.0753 0.059,0.0607 -0.35253,2.04367 -0.42711,2.0578 -0.0466,0.009 -0.17039,-1.9e-4 -0.27517,-0.02 z m 0.62969,-8.80847 c -0.0293,-1.47849 -0.18936,-12.841819 -0.35561,-25.251836 -0.16625,-12.410016 -0.32688,-22.925616 -0.35697,-23.367999 -0.0444,-0.652227 -0.75842,45.114895 -0.77905,49.932165 l -0.006,1.37583 h 0.77543 0.77542 z m -15.75773,-1.1163 c 0.39245,-0.48591 0.71334,-0.90501 0.71309,-0.93134 -2.5e-4,-0.0263 -0.39077,-0.25473 -0.86783,-0.50756 -1.1764,-0.62347 -3.06199,-1.72849 -4.57369,-2.68036 -0.688035,-0.433232 -1.223705,-0.742151 -1.190379,-0.686485 0.03333,0.05567 0.231192,0.367909 0.439702,0.693876 1.080277,1.688819 2.629417,4.354749 3.271617,5.630179 l 0.31966,0.63484 0.58714,-0.63484 c 0.32293,-0.34917 0.90824,-1.03241 1.30069,-1.51831 z m 32.3354,1.3514 c 0.68701,-1.36791 2.44738,-4.36009 3.55142,-6.036519 0.1198,-0.181911 -0.17588,-0.02763 -1.31689,0.687134 -1.55356,0.973195 -3.15622,1.908275 -4.45589,2.599815 -0.43074,0.2292 -0.78316,0.44199 -0.78316,0.47288 0,0.14262 2.46808,3.03642 2.58971,3.03642 0.0183,0 0.20496,-0.34188 0.41481,-0.75973 z"
       id="path1" /></g></svg>
