<?xml version="1.0" encoding="UTF-8" standalone="no"?>
<!-- Created with Inkscape (http://www.inkscape.org/) -->

<svg
   width="210mm"
   height="210mm"
   viewBox="0 0 210 210"
   version="1.1"
   id="svg1"
   xml:space="preserve"
   sodipodi:docname="war.svg"
   inkscape:version="1.4.2 (f4327f4, 2025-05-13)"
   xmlns:inkscape="http://www.inkscape.org/namespaces/inkscape"
   xmlns:sodipodi="http://sodipodi.sourceforge.net/DTD/sodipodi-0.dtd"
   xmlns="http://www.w3.org/2000/svg"
   xmlns:svg="http://www.w3.org/2000/svg"><sodipodi:namedview
     id="namedview1"
     pagecolor="#ffffff"
     bordercolor="#000000"
     borderopacity="0.25"
     inkscape:showpageshadow="2"
     inkscape:pageopacity="0.0"
     inkscape:pagecheckerboard="0"
     inkscape:deskcolor="#d1d1d1"
     inkscape:document-units="mm"
     inkscape:zoom="1.3630746"
     inkscape:cx="402.76592"
     inkscape:cy="526.38352"
     inkscape:window-width="1920"
     inkscape:window-height="974"
     inkscape:window-x="-11"
     inkscape:window-y="-11"
     inkscape:window-maximized="1"
     inkscape:current-layer="layer1"><inkscape:page
       x="0"
       y="0"
       width="210"
       height="210"
       id="page2"
       margin="0"
       bleed="0" /></sodipodi:namedview><defs
     id="defs1" /><g
     inkscape:label="Layer 1"
     inkscape:groupmode="layer"
     id="layer1"><path
       style="fill:#000000;stroke-width:0.8"
       d="m 44.466577,129.23345 c 5.856452,0.047 8.911363,-0.74255 10.623696,-2.74565 1.821121,-2.13036 2.907413,-5.94394 3.45802,-12.13984 0.339044,-3.81523 0.395102,-3.8661 2.304539,-2.09113 0.646617,0.60108 1.991023,1.64617 2.987569,2.32242 5.526352,3.75016 8.070575,3.80032 11.611601,3.61987 3.227749,-0.16448 5.025804,-0.59097 7.698191,-2.8416 2.596536,-2.18675 3.208539,-4.8283 3.825488,-6.69763 0.682004,-2.06643 1.0518,-3.70376 0.52002,-10.509978 -0.212212,-2.716094 -9.074418,-54.714626 -9.02727,-54.755611 0.04714,-0.04098 15.842458,49.365312 16.250442,50.691963 0.912852,2.968345 4.245121,11.140296 6.361187,13.910086 3.65313,4.78172 8.21877,5.89786 13.13483,5.98641 3.41598,0.0615 5.20851,-1.91183 8.74029,-4.99083 3.32189,-2.89603 4.36153,-4.07856 6.53709,-7.4356 0.63828,-0.98491 1.26194,-1.783652 1.38592,-1.77498 0.12397,0.0086 0.48015,1.38727 0.79149,3.06357 1.30066,7.00283 3.59089,12.55953 6.60609,16.02813 3.06095,3.52122 6.40221,5.14719 11.3277,5.51244 4.01099,0.29743 6.45974,0.006 11.93628,-1.41796 l 4.32891,-1.12598 -1.87139,2.2323 c -3.14759,3.75462 -4.50806,6.95149 -4.19856,9.86588 0.14939,1.40669 0.253,1.59485 1.94968,3.54045 1.6729,1.91835 1.93768,2.11867 3.98711,3.01645 1.20737,0.52891 2.83641,1.13213 3.62009,1.34049 0.78368,0.20836 1.62094,0.44473 1.86058,0.52529 0.48881,0.16431 0.52718,0.15456 -2.25237,0.57249 -3.17011,0.47667 -9.43801,2.3142 -12.8103,3.75556 l -3.29355,1.40771 -3.34321,0.12067 c -3.29699,0.119 -58.29335,0.26004 -90.708433,0.21053 -1.845356,-0.003 -3.231099,-3.813 -3.337061,-3.93868 -0.103371,-0.1226 -0.543285,-0.92369 -0.977586,-1.78019 -1.419351,-2.79914 -4.581961,-6.5291 -8.453335,-9.96981 -1.90829,-1.696 -3.556039,-3.18307 -3.661664,-3.30457 -0.105625,-0.12151 0.833936,-0.2127 2.087916,-0.20264 z"
       id="path1"
       sodipodi:nodetypes="cssscsssssssssscsssccsssssssscsssssscc" /></g></svg>
