<?xml version="1.0" encoding="UTF-8" standalone="no"?>
<!--?xml version="1.0" encoding="utf-8"?-->

<!-- Generator: Adobe Illustrator 18.1.1, SVG Export Plug-In . SVG Version: 6.00 Build 0)  -->

<svg
   version="1.1"
   id="_x31_0"
   x="0px"
   y="0px"
   viewBox="0 0 512 512"
   style="width: 256px; height: 256px; opacity: 1;"
   xml:space="preserve"
   sodipodi:docname="legitimacy.svg"
   inkscape:version="1.4.2 (f4327f4, 2025-05-13)"
   xmlns:inkscape="http://www.inkscape.org/namespaces/inkscape"
   xmlns:sodipodi="http://sodipodi.sourceforge.net/DTD/sodipodi-0.dtd"
   xmlns="http://www.w3.org/2000/svg"
   xmlns:svg="http://www.w3.org/2000/svg"><defs
   id="defs11" /><sodipodi:namedview
   id="namedview11"
   pagecolor="#ffffff"
   bordercolor="#000000"
   borderopacity="0.25"
   inkscape:showpageshadow="2"
   inkscape:pageopacity="0.0"
   inkscape:pagecheckerboard="0"
   inkscape:deskcolor="#d1d1d1"
   inkscape:zoom="0.26412924"
   inkscape:cx="408.89074"
   inkscape:cy="240.41261"
   inkscape:window-width="1920"
   inkscape:window-height="974"
   inkscape:window-x="-11"
   inkscape:window-y="-11"
   inkscape:window-maximized="1"
   inkscape:current-layer="_x31_0" />
<style
   type="text/css"
   id="style1">
	.st0{fill:#374149;}
</style>
<g
   id="g11"
   transform="matrix(0.81,0,0,0.81,48.640025,48.64)">
	<path
   class="st0"
   d="m 224.742,336.457 c 10.195,-0.676 20.633,-1.012 31.21,-1.012 10.586,0 21.039,0.34 31.297,1.016 3.387,0.222 6.516,-1.738 7.61,-4.946 11.934,-34.946 19.41,-81.973 19.41,-122.121 0,-74.871 -26.066,-97.511 -58.317,-97.511 -32.156,0 -58.222,22.64 -58.222,97.511 0,40.148 7.477,87.172 19.41,122.117 1.094,3.212 4.219,5.173 7.602,4.946 z"
   style="fill:#000000"
   id="path1" />
	<path
   class="st0"
   d="m 80.008,374.879 c 9.356,-5.488 19.711,-10.442 30.93,-14.778 4.848,-1.874 6.5,-7.793 3.246,-11.847 C 99.426,329.875 85.735,309.664 74.91,290.164 52.707,249.82 48.719,222.035 55.52,202.988 c 0.051,-0.141 0.106,-0.281 0.16,-0.422 0.508,-1.383 1.074,-2.715 1.695,-4 0.188,-0.386 0.395,-0.762 0.594,-1.141 0.523,-1.019 1.074,-2.019 1.668,-2.98 0.586,-0.938 1.218,-1.844 1.878,-2.734 0.262,-0.363 0.504,-0.738 0.774,-1.09 1.062,-1.351 2.203,-2.656 3.438,-3.906 -0.023,-0.008 -0.047,-0.008 -0.066,-0.016 0.043,-0.043 0.074,-0.094 0.117,-0.137 -13.886,-4.566 -27.113,-2.187 -39.195,4.566 -28.254,15.504 -40.242,47.949 -4.183,113.496 12.812,23.332 30.062,47.73 48.086,68.777 2.382,2.783 6.362,3.333 9.522,1.478 z"
   style="fill:#000000"
   id="path2" />
	<path
   class="st0"
   d="m 485.418,191.129 c -11.614,-6.488 -24.286,-8.871 -37.582,-5 -0.496,0.125 -1.007,0.187 -1.5,0.324 0.02,0.02 0.035,0.043 0.055,0.062 -0.055,0.02 -0.114,0.032 -0.172,0.047 17.699,18.172 20.55,49.664 -9.129,103.602 -10.832,19.507 -24.531,39.734 -39.297,58.117 -3.246,4.047 -1.61,9.961 3.226,11.84 11.234,4.359 21.606,9.281 30.973,14.762 3.16,1.851 7.14,1.305 9.523,-1.477 18.019,-21.046 35.27,-45.449 48.086,-68.781 36.058,-65.547 24.07,-97.992 -4.183,-113.496 z"
   style="fill:#000000"
   id="path3" />
	<path
   class="st0"
   d="m 140.797,344.696 c 1.715,2.804 5.02,4.066 8.211,3.266 10.926,-2.746 22.406,-5.102 34.375,-6.965 4.812,-0.75 7.675,-5.672 5.902,-10.211 -9.653,-24.691 -17.363,-52.23 -21.524,-77.344 -1.652,-10.074 -2.625,-19.206 -3,-27.484 -0.007,-0.16 -0.019,-0.324 -0.027,-0.48 -0.191,-4.52 -0.164,-8.719 -0.008,-12.734 0.043,-1.039 0.059,-2.114 0.122,-3.126 0.141,-2.199 0.324,-4.328 0.57,-6.37 0.297,-2.473 0.672,-4.856 1.121,-7.145 0.324,-1.649 0.687,-3.242 1.086,-4.782 0.605,-2.32 1.293,-4.538 2.078,-6.644 0.457,-1.242 0.942,-2.442 1.457,-3.598 0.946,-2.11 1.993,-4.102 3.141,-5.969 0.543,-0.883 1.09,-1.754 1.668,-2.574 1.371,-1.934 2.867,-3.711 4.485,-5.34 0.496,-0.508 0.98,-1.035 1.5,-1.511 2.125,-1.934 4.394,-3.684 6.906,-5.141 0.074,-0.043 0.141,-0.098 0.215,-0.141 -17.695,-28.922 -39.48,-34.722 -61.27,-28.922 -31.109,8.277 -50.515,36.816 -31.297,109.214 9.309,35.157 26,74.09 44.289,104.001 z"
   style="fill:#000000"
   id="path4" />
	<path
   class="st0"
   d="m 328.523,340.992 c 11.926,1.847 23.438,4.16 34.367,6.941 3.195,0.813 6.508,-0.441 8.226,-3.254 18.282,-29.906 34.973,-68.832 44.282,-103.984 19.214,-72.398 -0.192,-100.938 -31.301,-109.214 -19.793,-5.27 -39.574,-0.898 -56.301,21.625 -0.016,0.019 -0.031,0.039 -0.047,0.062 -1.558,2.102 -3.094,4.32 -4.598,6.746 -0.078,0.125 -0.164,0.226 -0.238,0.351 l 0.004,0.004 c -0.027,0.047 -0.058,0.086 -0.086,0.133 0.703,0.414 1.367,0.89 2.046,1.344 1.336,0.89 2.618,1.843 3.832,2.878 1.126,0.958 2.207,1.981 3.25,3.078 1.336,1.414 2.61,2.898 3.774,4.523 0.695,0.969 1.351,2.012 1.992,3.074 1.074,1.778 2.07,3.652 2.965,5.645 0.539,1.203 1.043,2.461 1.523,3.758 0.774,2.094 1.461,4.297 2.062,6.602 0.395,1.527 0.754,3.113 1.078,4.758 0.457,2.313 0.836,4.718 1.137,7.218 0.238,2.016 0.422,4.114 0.558,6.282 0.074,1.137 0.09,2.344 0.137,3.516 0.145,3.898 0.168,7.968 -0.015,12.343 -0.012,0.226 -0.032,0.469 -0.039,0.699 -0.383,8.238 -1.348,17.309 -2.992,27.32 -4.157,25.114 -11.867,52.649 -21.52,77.34 -1.772,4.54 1.084,9.466 5.904,10.212 z"
   style="fill:#000000"
   id="path5" />
	<polygon
   class="st0"
   points="256,20.016 218.715,57.301 218.554,57.462 218.554,57.462 218.442,57.575 256,95.133 293.558,57.575 "
   style="fill:#000000"
   id="polygon5" />
	<path
   class="st0"
   d="m 415.191,444.375 c -37.805,-22.492 -95.844,-35.39 -159.242,-35.39 -63.43,0 -121.446,12.898 -159.164,35.382 -2.039,1.219 -2.711,3.969 -1.492,6.118 l 22.218,39.171 c 0.797,1.406 2.32,2.321 3.875,2.321 0.359,0 0.718,-0.047 1.062,-0.141 42.695,-11.633 97.812,-16.844 133.5,-16.844 35.64,0 90.742,5.211 133.491,16.852 0.344,0.094 0.703,0.14 1.062,0.14 1.563,0 3.094,-0.922 3.906,-2.335 l 22.274,-39.164 c 1.229,-2.149 0.557,-4.892 -1.49,-6.11 z"
   style="fill:#000000"
   id="path6" />
	<path
   class="st0"
   d="m 116.668,408.992 c 0,-6.32 -2.562,-12.484 -7.038,-17.038 -8.962,-8.883 -24.883,-8.961 -33.922,0.078 -4.476,4.477 -7.038,10.641 -7.038,16.961 0,6.242 2.562,12.477 7.038,16.962 4.477,4.476 10.719,7.038 16.961,7.038 6.321,0 12.477,-2.562 16.962,-7.038 4.475,-4.487 7.037,-10.643 7.037,-16.963 z"
   style="fill:#000000"
   id="path7" />
	<path
   class="st0"
   d="m 335.23,404.031 c 1.594,0.321 3.195,0.477 4.797,0.477 11.117,0 21.203,-7.836 23.438,-19.274 2.64,-12.961 -5.758,-25.679 -18.719,-28.242 -13.038,-2.641 -25.679,5.758 -28.32,18.718 -2.641,12.962 5.757,25.681 18.804,28.321 z"
   style="fill:#000000"
   id="path8" />
	<path
   class="st0"
   d="m 167.145,356.992 c -13.039,2.64 -21.438,15.281 -18.797,28.32 2.32,11.359 12.32,19.195 23.523,19.195 1.594,0 3.195,-0.156 4.797,-0.477 12.961,-2.64 21.359,-15.281 18.719,-28.32 -2.641,-12.96 -15.281,-21.358 -28.242,-18.718 z"
   style="fill:#000000"
   id="path9" />
	<path
   class="st0"
   d="m 231.95,372.508 c 0,13.203 10.718,23.922 24,23.922 13.195,0 23.999,-10.718 23.999,-24 0,-13.195 -10.804,-23.922 -23.999,-23.922 -13.282,0 -24,10.726 -24,24 z"
   style="fill:#000000"
   id="path10" />
	<path
   class="st0"
   d="m 402.269,392.031 c -4.484,4.477 -6.961,10.641 -6.961,16.961 0,6.242 2.477,12.477 6.961,16.962 4.555,4.476 10.719,7.038 17.039,7.038 6.242,0 12.477,-2.562 16.961,-7.038 4.477,-4.485 7.039,-10.641 7.039,-16.962 0,-6.32 -2.562,-12.484 -7.039,-17.038 -9.039,-8.884 -24.961,-8.884 -34,0.077 z"
   style="fill:#000000"
   id="path11" />
</g>
</svg>
